# xmcd CD database file
#
# Track frame offsets:
#	150
#	19485
#	41647
#	62089
#	84623
#	104783
#	128693
#	153630
#	172422
#	195356
#
# Disc length: 2884 seconds
#
# Revision: 0
# Processed by: cddbd v1.5.2PL0 Copyright (c) Steve Scherf et al.
# Submitted via: CDex 1.51
#
DISCID=8f0b420a
DTITLE=Kilele - Salsero
DYEAR=2006
DGENRE=Salsa
TTITLE0=Salsero
TTITLE1=Presentimiento
TTITLE2=Cruel navidad
TTITLE3=Amargura
TTITLE4=La flor de la canela
TTITLE5=Te extrano
TTITLE6=Cumbia medley
TTITLE7=Una novia
TTITLE8=Sueno celeste
TTITLE9=El canto del sinsonte
EXTD=YEAR: 2006
EXTT0=
EXTT1=
EXTT2=
EXTT3=
EXTT4=
EXTT5=
EXTT6=
EXTT7=
EXTT8=
EXTT9=
PLAYORDER=
